<svg width="38" height="55" viewBox="0 0 38 55" fill="none" xmlns="http://www.w3.org/2000/svg">
<path d="M3.90956 43.0478L7.16608 51.1678L10.4165 43.0478H12.1209V53H10.8061V49.1226L10.9339 44.9409L7.66521 53H6.66086L3.39825 44.9591L3.52608 49.1226V53H2.21738V43.0478H3.90956ZM19.2244 48.3983H14.9087V51.9287H19.9244V53H13.6V43.0478H19.8513V44.1252H14.9087V47.327H19.2244V48.3983ZM28.3623 53H27.0475L22.0379 45.3304V53H20.7171V43.0478H22.0379L27.0597 50.7539V43.0478H28.3623V53ZM36.8636 43.0478V49.8165C36.8596 50.7539 36.5633 51.5209 35.9749 52.1174C35.3906 52.7139 34.5972 53.0487 33.5949 53.1217L33.248 53.1339C32.1564 53.1339 31.2859 52.8417 30.6367 52.2574C29.9915 51.669 29.6648 50.8594 29.6567 49.8287V43.0478H30.9593V49.7861C30.9593 50.5084 31.1561 51.0684 31.5497 51.4661C31.9474 51.8638 32.5135 52.0626 33.248 52.0626C33.9906 52.0626 34.5587 51.8658 34.9523 51.4722C35.3459 51.0745 35.5428 50.5145 35.5428 49.7922V43.0478H36.8636Z" fill="#F9FAFB"/>
<rect x="22.6191" y="0.904762" width="14.4762" height="14.4762" rx="2.71429" stroke="#F9FAFB" stroke-width="1.80952"/>
<rect x="2.71433" y="19" width="14.4762" height="14.4762" rx="2.71429" stroke="#F9FAFB" stroke-width="1.80952"/>
<path fill-rule="evenodd" clip-rule="evenodd" d="M14.4762 1.80952H5.42862C4.42925 1.80952 3.61909 2.61968 3.61909 3.61905V5.42857H1.80957V3.61905C1.80957 1.6203 3.42987 0 5.42862 0H14.4762C16.475 0 18.0953 1.6203 18.0953 3.61905V12.6667C18.0953 14.6654 16.475 16.2857 14.4762 16.2857H5.42862C3.42988 16.2857 1.80957 14.6654 1.80957 12.6667V10.8571H3.61909V12.6667C3.61909 13.666 4.42925 14.4762 5.42862 14.4762H14.4762C15.4756 14.4762 16.2858 13.666 16.2858 12.6667V3.61905C16.2858 2.61968 15.4756 1.80952 14.4762 1.80952ZM3.61909 9.04762V7.2381H1.80957V9.04762H3.61909Z" fill="#F9FAFB"/>
<path fill-rule="evenodd" clip-rule="evenodd" d="M32.6664 31.9162C33.6759 31.4158 34.5329 30.6542 35.149 29.7198L36.4493 31.02C35.7952 31.9201 34.9613 32.681 34.0002 33.25L32.6664 31.9162ZM30.7063 32.5151C30.4287 32.5523 30.1455 32.5715 29.8577 32.5715C26.3599 32.5715 23.5244 29.7359 23.5244 26.2381C23.5244 22.7403 26.3599 19.9048 29.8577 19.9048C33.3555 19.9048 36.191 22.7403 36.191 26.2381C36.191 26.8366 36.108 27.4157 35.9529 27.9645L37.3711 29.3828C37.7766 28.4153 38.0006 27.3529 38.0006 26.2381C38.0006 21.741 34.3549 18.0953 29.8577 18.0953C25.3605 18.0953 21.7148 21.741 21.7148 26.2381C21.7148 30.7353 25.3605 34.381 29.8577 34.381C30.6804 34.381 31.4746 34.259 32.2233 34.0321L30.7063 32.5151Z" fill="#F9FAFB"/>
</svg>
