<svg width="37" height="35" viewBox="0 0 37 35" fill="none" xmlns="http://www.w3.org/2000/svg">
<rect x="21.6191" y="0.904762" width="14.4762" height="14.4762" rx="2.71429" stroke="#F9FAFB" stroke-width="1.80952"/>
<rect x="1.71433" y="19" width="14.4762" height="14.4762" rx="2.71429" stroke="#F9FAFB" stroke-width="1.80952"/>
<path fill-rule="evenodd" clip-rule="evenodd" d="M13.4762 1.80952H4.42862C3.42925 1.80952 2.61909 2.61968 2.61909 3.61905V5.42857H0.80957V3.61905C0.80957 1.6203 2.42987 0 4.42862 0H13.4762C15.475 0 17.0953 1.6203 17.0953 3.61905V12.6667C17.0953 14.6654 15.475 16.2857 13.4762 16.2857H4.42862C2.42988 16.2857 0.80957 14.6654 0.80957 12.6667V10.8571H2.61909V12.6667C2.61909 13.666 3.42925 14.4762 4.42862 14.4762H13.4762C14.4756 14.4762 15.2858 13.666 15.2858 12.6667V3.61905C15.2858 2.61968 14.4756 1.80952 13.4762 1.80952ZM2.61909 9.04762V7.2381H0.80957V9.04762H2.61909Z" fill="#F9FAFB"/>
<path fill-rule="evenodd" clip-rule="evenodd" d="M31.6664 31.9162C32.6759 31.4158 33.5329 30.6542 34.149 29.7198L35.4493 31.02C34.7952 31.9201 33.9613 32.681 33.0002 33.25L31.6664 31.9162ZM29.7063 32.5151C29.4287 32.5523 29.1455 32.5715 28.8577 32.5715C25.3599 32.5715 22.5244 29.7359 22.5244 26.2381C22.5244 22.7403 25.3599 19.9048 28.8577 19.9048C32.3555 19.9048 35.191 22.7403 35.191 26.2381C35.191 26.8366 35.108 27.4157 34.9529 27.9645L36.3711 29.3828C36.7766 28.4153 37.0006 27.3529 37.0006 26.2381C37.0006 21.741 33.3549 18.0953 28.8577 18.0953C24.3605 18.0953 20.7148 21.741 20.7148 26.2381C20.7148 30.7353 24.3605 34.381 28.8577 34.381C29.6804 34.381 30.4746 34.259 31.2233 34.0321L29.7063 32.5151Z" fill="#F9FAFB"/>
</svg>
