<svg width="31" height="31" viewBox="0 0 31 31" fill="none" xmlns="http://www.w3.org/2000/svg">
<path d="M22.7332 8.16333C21.7863 7.20934 20.6592 6.45312 19.4174 5.93867C18.1756 5.42422 16.844 5.16179 15.4998 5.16667C13.7029 5.16842 11.938 5.64225 10.3819 6.54071C8.82572 7.43917 7.53294 8.73072 6.63298 10.286C5.73303 11.8413 5.25751 13.6057 5.25403 15.4026C5.25055 17.1995 5.71925 18.9658 6.61317 20.5246L5.1665 25.8333L10.5915 24.4125C12.0895 25.2459 13.7727 25.69 15.4869 25.7042C18.2119 25.7043 20.8266 24.628 22.7619 22.7096C24.6972 20.7913 25.7964 18.1861 25.8203 15.4612C25.8112 14.1015 25.5338 12.7569 25.004 11.5046C24.4743 10.2523 23.7026 9.11684 22.7332 8.16333ZM15.4998 23.9346C13.9727 23.9356 12.4735 23.5251 11.1598 22.7463L10.8498 22.5525L7.63359 23.405L8.48609 20.2662L8.27942 19.9433C7.18054 18.1694 6.77042 16.0541 7.12677 13.9981C7.48311 11.9421 8.58117 10.0881 10.2129 8.7875C11.8447 7.48687 13.8968 6.82989 15.9805 6.94101C18.0642 7.05213 20.0348 7.92363 21.519 9.39042C23.1413 10.9768 24.0701 13.1407 24.1023 15.4096C24.0819 17.6777 23.1666 19.8459 21.5555 21.4424C19.9444 23.039 17.768 23.9347 15.4998 23.9346ZM20.1628 17.5537C19.9044 17.4246 18.6515 16.8046 18.419 16.7271C18.1865 16.6496 18.0057 16.5979 17.8378 16.8562C17.585 17.2025 17.3134 17.5346 17.024 17.8508C16.8819 18.0317 16.7269 18.0446 16.4686 17.8508C14.9957 17.2688 13.7686 16.1967 12.994 14.8154C12.7228 14.3633 13.2523 14.3892 13.7432 13.4204C13.7794 13.3506 13.7983 13.2731 13.7983 13.1944C13.7983 13.1157 13.7794 13.0382 13.7432 12.9683C13.7432 12.8392 13.1619 11.5733 12.9553 11.0696C12.7486 10.5658 12.5419 10.6433 12.374 10.6304H11.8703C11.7397 10.6324 11.6112 10.6623 11.4931 10.718C11.375 10.7736 11.2702 10.8539 11.1857 10.9533C10.8958 11.2351 10.6698 11.5758 10.5227 11.9524C10.3757 12.3289 10.311 12.7326 10.3332 13.1362C10.4142 14.1025 10.7781 15.0235 11.3794 15.7842C12.4802 17.432 13.9887 18.767 15.7582 19.6592C16.6862 20.2009 17.7648 20.4275 18.8323 20.305C19.1878 20.2344 19.5245 20.0899 19.8205 19.8807C20.1165 19.6715 20.3651 19.4024 20.5503 19.0908C20.7218 18.7106 20.7758 18.2878 20.7053 17.8767C20.589 17.7475 20.4211 17.6829 20.1628 17.5537Z" fill="white"/>
</svg>
