<svg width="31" height="31" viewBox="0 0 31 31" fill="none" xmlns="http://www.w3.org/2000/svg">
<path d="M13.9495 0.00028044C6.25796 0.00028044 0 6.29406 0 14.0296C0 21.7651 6.25796 28.0589 13.9495 28.0589C17.4777 28.0589 20.7061 26.7292 23.1685 24.547L29.6924 31L31 29.6647L24.4818 23.2169C26.6097 20.7531 27.9046 17.5412 27.9046 14.0293C27.8991 6.29378 21.641 0.00028044 13.9495 0.00028044ZM13.9495 26.1859C7.28737 26.1859 1.86235 20.7317 1.86235 14.0296C1.86235 7.32937 7.28551 1.87329 13.9495 1.87329C20.6115 1.87329 26.0366 7.3275 26.0366 14.0296C26.0366 20.7298 20.6134 26.1859 13.9495 26.1859Z" fill="#003B8E"/>
</svg>
